<?xml version="1.0" standalone="no"?>
<!DOCTYPE svg PUBLIC "-//W3C//DTD SVG 20010904//EN"
 "http://www.w3.org/TR/2001/REC-SVG-20010904/DTD/svg10.dtd">
<svg version="1.0" xmlns="http://www.w3.org/2000/svg"
 width="512.000000pt" height="512.000000pt" viewBox="0 0 512.000000 512.000000"
 preserveAspectRatio="xMidYMid meet">
<metadata>
Created by potrace 1.14, written by Peter Selinger 2001-2017
</metadata>
<g transform="translate(0.000000,512.000000) scale(0.100000,-0.100000)"
fill="#000000" stroke="none">
<path d="M2500 4953 c-37 -15 -105 -123 -148 -238 -33 -85 -34 -221 -2 -315
26 -77 56 -125 127 -202 77 -84 98 -133 97 -233 -1 -92 -24 -165 -81 -248 -42
-60 -48 -107 -17 -137 44 -44 95 -32 142 34 82 115 123 245 118 375 -6 129
-40 207 -140 316 -137 151 -146 294 -30 481 52 85 57 123 18 153 -26 21 -54
25 -84 14z"/>
<path d="M1995 4716 c-46 -48 -112 -187 -130 -274 -35 -169 6 -306 136 -449
32 -36 68 -86 79 -111 50 -112 25 -253 -70 -392 -45 -67 -37 -116 23 -139 53
-21 104 23 163 138 72 142 88 293 44 420 -24 72 -58 126 -125 197 -86 92 -116
192 -93 311 8 41 46 124 86 187 38 60 40 89 7 121 -36 37 -79 33 -120 -9z"/>
<path d="M2994 4714 c-75 -83 -134 -236 -139 -362 -5 -128 36 -235 131 -341
74 -83 92 -113 110 -180 26 -103 -3 -220 -85 -341 -37 -54 -39 -80 -8 -114 51
-58 109 -32 175 77 60 99 85 189 85 302 0 148 -37 234 -149 353 -128 135 -132
302 -13 481 45 68 49 102 14 136 -37 38 -80 33 -121 -11z"/>
<path d="M4382 3195 c-74 -17 -127 -42 -197 -91 -77 -54 -103 -83 -103 -115 0
-16 -16 -49 -40 -80 -81 -108 -177 -326 -196 -449 -6 -38 -60 -244 -72 -274
-6 -15 -3 -17 12 -13 17 5 96 19 109 19 2 0 24 6 47 13 l43 12 40 119 c22 65
52 139 66 164 14 25 36 63 48 84 21 37 48 75 96 136 11 14 57 62 103 108 78
78 95 87 144 83 10 -1 34 9 55 23 21 14 43 26 50 26 7 0 13 5 13 10 0 6 7 10
15 10 22 0 55 60 55 100 0 33 -20 75 -44 93 -42 29 -167 41 -244 22z"/>
<path d="M2258 3056 c-1 -2 -64 -7 -138 -10 -74 -4 -155 -9 -180 -11 -80 -7
-174 -16 -205 -20 -16 -2 -52 -7 -80 -10 -647 -78 -1165 -273 -1165 -440 0
-45 40 -97 107 -142 22 -14 26 -13 79 36 49 45 187 132 211 133 4 0 24 8 43
18 50 25 236 84 332 106 10 2 28 6 41 9 12 2 42 9 67 15 74 16 240 45 325 55
28 4 61 8 75 10 14 2 54 6 90 10 36 4 79 8 96 10 236 27 999 27 1214 0 19 -2
60 -7 90 -10 126 -14 292 -37 394 -56 59 -11 109 -19 111 -17 1 2 23 45 49 97
33 66 44 97 37 104 -6 6 -11 8 -11 5 0 -3 -17 -2 -37 3 -53 12 -344 57 -423
64 -36 4 -78 8 -95 10 -16 2 -73 7 -125 10 -52 4 -111 9 -130 11 -43 5 -767
14 -772 10z"/>
<path d="M4410 2678 c-53 -58 -90 -107 -90 -119 0 -4 22 -21 48 -38 26 -17 66
-49 88 -71 21 -22 42 -40 45 -40 3 0 26 16 51 35 58 46 83 91 74 136 -8 44
-69 109 -133 143 -28 14 -29 13 -83 -46z"/>
<path d="M2199 2686 c-2 -2 -49 -7 -104 -10 -161 -11 -300 -24 -325 -31 -8 -2
-42 -6 -75 -10 -33 -3 -67 -8 -75 -10 -8 -3 -31 -7 -50 -10 -87 -12 -225 -42
-335 -72 -49 -14 -97 -26 -105 -28 -65 -13 -270 -109 -328 -153 l-34 -26 28
-14 c82 -43 369 -122 569 -156 17 -3 41 -8 55 -11 14 -3 41 -7 60 -9 19 -3 85
-12 145 -20 61 -8 139 -18 175 -21 36 -3 81 -8 100 -10 244 -28 860 -33 1175
-10 170 12 221 16 243 20 13 2 53 7 90 11 37 3 74 8 82 9 8 2 29 4 45 4 17 1
36 5 43 9 14 9 63 146 86 242 32 137 46 203 43 206 -1 2 -16 5 -32 8 -282 48
-350 57 -515 71 -41 4 -93 9 -115 12 -45 6 -841 14 -846 9z"/>
<path d="M4222 2407 c-8 -10 -52 -129 -52 -141 0 -3 73 22 154 53 35 14 27 27
-44 70 -36 22 -51 27 -58 18z"/>
<path d="M479 2298 c-2 -18 -2 -12 6 -117 6 -82 20 -176 40 -271 2 -14 7 -34
9 -45 26 -131 117 -352 200 -485 119 -193 315 -390 496 -497 241 -143 527
-242 805 -279 28 -3 57 -7 65 -9 13 -3 46 -6 206 -21 116 -11 522 -4 630 11
17 2 57 7 90 10 32 3 66 8 74 10 8 3 33 7 55 11 64 9 277 61 325 79 156 58
196 74 290 123 509 259 822 766 866 1402 6 92 6 95 -12 79 -39 -34 -148 -90
-256 -132 -154 -61 -279 -96 -503 -143 -111 -23 -408 -66 -540 -79 -289 -26
-337 -28 -740 -29 -340 -1 -512 4 -670 19 -16 1 -66 5 -110 9 -44 4 -91 9
-105 11 -14 3 -52 7 -85 10 -33 3 -67 8 -75 10 -8 3 -44 9 -80 14 -36 6 -76
12 -90 15 -13 3 -42 8 -65 12 -80 11 -256 54 -376 89 -169 51 -316 114 -405
176 -29 19 -44 25 -45 17z m3985 -369 c33 -26 34 -67 3 -163 -27 -85 -57 -112
-111 -102 -37 7 -66 44 -61 76 8 43 45 160 56 178 23 36 74 41 113 11z m-263
-513 c49 -51 31 -93 -90 -208 -176 -167 -361 -281 -601 -373 -77 -29 -180 -62
-220 -70 -8 -2 -42 -10 -75 -18 -144 -37 -310 -60 -520 -73 l-105 -6 -30 31
c-30 30 -33 48 -15 93 10 25 52 37 159 43 262 16 459 52 661 121 72 24 135 45
140 47 60 18 318 162 357 200 7 7 33 28 58 48 25 20 79 71 121 113 85 85 118
96 160 52z"/>
<path d="M1922 445 c136 -56 274 -86 473 -103 244 -21 511 6 726 74 83 26 158
61 109 50 -22 -4 -101 -17 -210 -32 -19 -3 -66 -7 -105 -10 -38 -3 -86 -7
-105 -9 -47 -5 -456 -5 -500 0 -19 2 -75 6 -125 10 -49 4 -92 9 -95 10 -3 2
-33 6 -65 10 -33 4 -76 11 -95 16 -63 16 -66 9 -8 -16z"/>
</g>
</svg>
